<svg id="visual" viewBox="0 0 540 960" width="540" height="960" xmlns="http://www.w3.org/2000/svg" xmlns:xlink="http://www.w3.org/1999/xlink" version="1.1"><rect x="0" y="0" width="540" height="960" fill="#F1FAEE"></rect><path d="M0 884L12.8 869.5C25.7 855 51.3 826 77 823.5C102.7 821 128.3 845 154 858C179.7 871 205.3 873 231.2 863.8C257 854.7 283 834.3 308.8 829.7C334.7 825 360.3 836 386 839C411.7 842 437.3 837 463 831.8C488.7 826.7 514.3 821.3 527.2 818.7L540 816L540 961L527.2 961C514.3 961 488.7 961 463 961C437.3 961 411.7 961 386 961C360.3 961 334.7 961 308.8 961C283 961 257 961 231.2 961C205.3 961 179.7 961 154 961C128.3 961 102.7 961 77 961C51.3 961 25.7 961 12.8 961L0 961Z" fill="#a8dadc"></path><path d="M0 853L12.8 851.7C25.7 850.3 51.3 847.7 77 852.3C102.7 857 128.3 869 154 873.3C179.7 877.7 205.3 874.3 231.2 870C257 865.7 283 860.3 308.8 855.8C334.7 851.3 360.3 847.7 386 845.3C411.7 843 437.3 842 463 846.2C488.7 850.3 514.3 859.7 527.2 864.3L540 869L540 961L527.2 961C514.3 961 488.7 961 463 961C437.3 961 411.7 961 386 961C360.3 961 334.7 961 308.8 961C283 961 257 961 231.2 961C205.3 961 179.7 961 154 961C128.3 961 102.7 961 77 961C51.3 961 25.7 961 12.8 961L0 961Z" fill="#53859b"></path><path d="M0 879L12.8 887.7C25.7 896.3 51.3 913.7 77 922C102.7 930.3 128.3 929.7 154 923.5C179.7 917.3 205.3 905.7 231.2 898C257 890.3 283 886.7 308.8 891.2C334.7 895.7 360.3 908.3 386 911.2C411.7 914 437.3 907 463 901.5C488.7 896 514.3 892 527.2 890L540 888L540 961L527.2 961C514.3 961 488.7 961 463 961C437.3 961 411.7 961 386 961C360.3 961 334.7 961 308.8 961C283 961 257 961 231.2 961C205.3 961 179.7 961 154 961C128.3 961 102.7 961 77 961C51.3 961 25.7 961 12.8 961L0 961Z" fill="#1d3557"></path></svg>